Coordinates
version=1
nRows=10
nColumns=40
inDegrees=yes

Units are S.I. units (second, meters, Newtons, ...)
If the header above contains a line with 'inDegrees', this indicates whether rotational values are in degrees (yes) or radians (no).

endheader
time	pelvis_tilt	pelvis_list	pelvis_rotation	pelvis_tx	pelvis_ty	pelvis_tz	hip_flexion_r	hip_adduction_r	hip_rotation_r	knee_angle_r	knee_angle_r_beta	ankle_angle_r	subtalar_angle_r	mtp_angle_r	hip_flexion_l	hip_adduction_l	hip_rotation_l	knee_angle_l	knee_angle_l_beta	ankle_angle_l	subtalar_angle_l	mtp_angle_l	lumbar_extension	lumbar_bending	lumbar_rotation	arm_flex_r	arm_add_r	arm_rot_r	elbow_flex_r	pro_sup_r	wrist_flex_r	wrist_dev_r	arm_flex_l	arm_add_l	arm_rot_l	elbow_flex_l	pro_sup_l	wrist_flex_l	wrist_dev_l
      3.42500000	     -4.15240819	      5.28922409	     -0.79679863	     -0.44360210	      0.76153604	     -0.80351585	     54.28332403	     -3.45108530	     -6.89168876	     80.46901524	      1.40444926	     24.56023944	      0.00000000	      0.00000000	     60.65767046	     -5.74193128	    -13.79582167	     28.48909078	      0.49722843	    -22.99759320	      0.00000000	      0.00000000	    -24.85936128	    -27.68914587	    -19.30757193	     79.33139891	    -12.61690193	     17.34602575	     53.18814292	     87.50670016	      0.00000000	      0.00000000	     89.96339337	     11.03715063	     28.49150189	     37.63460267	     41.07386640	      0.00000000	      0.00000000
      3.43000000	     -4.18842814	      5.31210540	     -0.75450536	     -0.44378236	      0.76061462	     -0.80365327	     54.45135366	     -3.48844566	     -6.86018195	     80.66456568	      1.40786226	     24.53571469	      0.00000000	      0.00000000	     60.77381622	     -5.71381396	    -13.80887195	     28.50276590	      0.49746711	    -23.03789562	      0.00000000	      0.00000000	    -24.85168241	    -27.66786523	    -19.33305276	     79.34442653	    -12.59285043	     17.31221975	     53.13356477	     87.43923246	      0.00000000	      0.00000000	     89.96351378	     10.99492850	     28.73249148	     37.67234531	     40.88489377	      0.00000000	      0.00000000
      3.43500000	     -4.20752597	      5.33389360	     -0.81394472	     -0.44390065	      0.75975242	     -0.80354943	     54.58729518	     -3.40061843	     -6.75279562	     80.83591361	      1.41085285	     24.62809394	      0.00000000	      0.00000000	     60.84462783	     -5.80179400	    -13.96110438	     28.53397752	      0.49801186	    -22.96119347	      0.00000000	      0.00000000	    -24.83609185	    -27.70459500	    -19.25137069	     79.36898524	    -12.64937104	     17.31068932	     53.14685917	     87.46657540	      0.00000000	      0.00000000	     89.96356421	     11.08090488	     28.56114723	     37.67683119	     40.69173518	      0.00000000	      0.00000000
      3.44000000	     -4.24304267	      5.31600744	     -0.69467238	     -0.44406868	      0.75896925	     -0.80385595	     54.70170561	     -3.46651092	     -6.78371661	     80.97106902	      1.41321175	     24.75381824	      0.00000000	      0.00000000	     60.97180886	     -5.72142944	    -13.92175879	     28.56643545	      0.49857835	    -22.99770609	      0.00000000	      0.00000000	    -24.92096394	    -27.60798527	    -19.41055517	     79.44314126	    -12.61589173	     17.26400984	     53.12180102	     87.46786804	      0.00000000	      0.00000000	     89.96358643	     11.11818409	     28.27517891	     37.78849236	     40.49452499	      0.00000000	      0.00000000
      3.44500000	     -4.24951864	      5.31937797	     -0.69146725	     -0.44424349	      0.75813170	     -0.80389994	     54.82435651	     -3.43508894	     -6.72166384	     81.15526773	      1.41642663	     24.82041449	      0.00000000	      0.00000000	     61.04781878	     -5.74568141	    -13.98320776	     28.58826865	      0.49895942	    -23.00684398	      0.00000000	      0.00000000	    -24.92898289	    -27.58430947	    -19.36714065	     79.46858609	    -12.62854834	     17.19628654	     53.08254936	     87.47252844	      0.00000000	      0.00000000	     89.96379243	     11.14625548	     28.29526399	     37.81538566	     40.29004300	      0.00000000	      0.00000000
      3.45000000	     -4.25342242	      5.38728736	     -0.67889012	     -0.44441019	      0.75728463	     -0.80406145	     54.95108553	     -3.45427269	     -6.58943155	     81.33751179	      1.41960739	     24.89316487	      0.00000000	      0.00000000	     61.11505685	     -5.70856474	    -14.07243405	     28.62349165	      0.49957417	    -22.93673913	      0.00000000	      0.00000000	    -24.98957350	    -27.59159423	    -19.41743792	     79.55697973	    -12.61905395	     17.18909649	     53.06059438	     87.48114883	      0.00000000	      0.00000000	     89.96375830	     11.18163128	     28.08249961	     37.89976700	     40.10100753	      0.00000000	      0.00000000
      3.45500000	     -4.27113205	      5.40573876	     -0.64626510	     -0.44458326	      0.75650712	     -0.80416512	     55.07204954	     -3.47074994	     -6.56638202	     81.49996694	      1.42244276	     24.97546400	      0.00000000	      0.00000000	     61.19046342	     -5.68861379	    -14.12053111	     28.60531764	      0.49925698	    -23.04855310	      0.00000000	      0.00000000	    -25.02704580	    -27.59822928	    -19.44967787	     79.56832894	    -12.62820735	     17.13348008	     53.04952917	     87.47485138	      0.00000000	      0.00000000	     89.96389157	     11.21589356	     28.07203083	     37.96790926	     39.89591056	      0.00000000	      0.00000000
      3.46000000	     -4.28188057	      5.36113088	     -0.62161824	     -0.44476675	      0.75563929	     -0.80425136	     55.19042811	     -3.41768718	     -6.55763130	     81.66358486	      1.42529843	     25.06868324	      0.00000000	      0.00000000	     61.29907758	     -5.71477295	    -14.11896333	     28.65008488	      0.50003831	    -23.04320782	      0.00000000	      0.00000000	    -25.06530684	    -27.52089608	    -19.45579528	     79.62560110	    -12.63652705	     17.07860693	     53.02356730	     87.50167283	      0.00000000	      0.00000000	     89.96395559	     11.27539750	     27.87260162	     38.05707460	     39.71131285	      0.00000000	      0.00000000
      3.46500000	     -4.30693984	      5.33791112	     -0.57931945	     -0.44494612	      0.75481643	     -0.80441479	     55.31525620	     -3.40411200	     -6.54473443	     81.82135809	      1.42805210	     25.15171042	      0.00000000	      0.00000000	     61.40487186	     -5.70646561	    -14.11827309	     28.66119773	      0.50023227	    -23.08400888	      0.00000000	      0.00000000	    -25.09140028	    -27.43133532	    -19.50083024	     79.68571235	    -12.60649076	     17.04922959	     53.03176022	     87.50101090	      0.00000000	      0.00000000	     89.96409702	     11.27935222	     27.74099384	     38.11074987	     39.47195145	      0.00000000	      0.00000000
      3.47000000	     -4.31208906	      5.37555097	     -0.53352299	     -0.44510670	      0.75408308	     -0.80452725	     55.42572481	     -3.42754003	     -6.47101049	     81.97607295	      1.43075238	     25.17964486	      0.00000000	      0.00000000	     61.45655880	     -5.65049694	    -14.15335607	     28.61487245	      0.49942374	    -23.21878326	      0.00000000	      0.00000000	    -25.25315481	    -27.48894195	    -19.79800345	     79.75360430	    -12.46285016	     16.95850411	     52.98989415	     87.51150685	      0.00000000	      0.00000000	     89.96425070	     11.26836592	     27.47572772	     38.34360788	     39.30270405	      0.00000000	      0.00000000
